<?xml version="1.0" encoding="utf-8"?>
<svg xmlns="http://www.w3.org/2000/svg" width="194" height="176" viewBox="0 0 194 176">
  <path fill="#FFF200" d="M30.898 35.258c.944 4.207 4.938 9.668 4.938 9.668-1.472-2.625 0-11.453 0-11.453 2.21 3.363 8.303 4.417 8.303 4.417-2.837-1.367-5.465-5.467-5.465-5.467 3.68.84 7.566 5.044 7.566 5.044-2.73 1.578-5.885 8.407-5.885 8.407 5.148-1.258 18.393 1.685 18.393 1.685s8.878-4.47 10.192-5.782c1.314-1.314 2.21-3.994 2.21-3.994-2.94-.844-4.73 2.52-5.887 2.52-1.158 0-1.895-2.414-2.942-2.414-1.05 0-11.453.628-11.453.628s5.78-8.304 12.715-8.304 11.877 7.463 16.71 7.463 11.247-2.312 11.247-2.312l-5.89 4.624h23.078l-5.885-4.625s6.415 2.312 11.246 2.312c4.833 0 9.77-7.463 16.71-7.463 6.936 0 12.717 8.304 12.717 8.304s-10.408-.628-11.46-.628c-1.047 0-1.784 2.413-2.938 2.413s-2.946-3.363-5.886-2.52c0 0 .89 2.68 2.205 3.995 1.313 1.31 10.19 5.78 10.19 5.78s13.245-2.94 18.4-1.684c0 0-3.157-6.83-5.887-8.407 0 0 3.884-4.203 7.563-5.044 0 0-2.63 4.1-5.465 5.467 0 0 6.097-1.054 8.302-4.417 0 0 1.472 8.828 0 11.453 0 0 3.993-5.46 4.94-9.668 0 0 .367 9.304-.947 10.615 0 0 8.2-9.878 6.94-25.115 0 0-3.73 2.47-4.522 3.256 0 0-.054-2.68.63-3.36 0 0-16.758 3.096-22.91 9.245 0 0-7.985-9.986-17.863-9.986-13.452 0-21.44 6.412-27.62 6.412s-14.167-6.412-27.622-6.412c-9.878 0-17.862 9.985-17.862 9.985-6.15-6.15-22.912-9.246-22.912-9.246.68.68.63 3.36.63 3.36-.79-.788-4.517-3.256-4.517-3.256-1.264 15.236 6.933 25.115 6.933 25.115-1.312-1.31-.942-10.615-.942-10.615zm92.337-8.3l-9.46 7.882-5.776-3.783 15.235-4.1zm-36.85 4.1L80.61 34.84l-9.458-7.883 15.236 4.1zm10.808 17.906c6.995 0 13.872-5.302 13.872-5.302H83.32s6.878 5.302 13.873 5.302zm-59.856-2.472c-1.992 1.993-4.96 6.56-4.96 6.56l18.278 2.13c1.833-3.335 3.777-5.153 3.777-5.153L37.337 46.49zm23.292 67.624s1.52-16.995 8.705-22.11c0 0-6.912-.965-10.5-.965 0 0 1.587-6.43 4.42-9.262 0 0-4.838-.415-9.81-.415 0 0 2.764-15.754 6.493-21.142 0 0-14.65 10.78-20.313 30.953 0 0 5.666-2.208 13.128-2.208 0 0-2.768 8.563-2.768 9.95 0 0 2.35-.833 11.61-1.52.002 0-1.93 12.852-.966 16.72zm.375-57.38c5.357.96 21.637 6.514 21.637 6.514-7.756-1.243-20.3-.574-20.3-.574.478 2.392 5.265 7.756 5.265 7.756 4.12-1.53 21.257-3.446 21.257-3.446 3.16-1.817 5.267-8.904 5.267-8.904-3.065-5.406-19.23-12.226-19.23-12.226-3.723 1.37-7.388 3.896-7.388 3.896l9.29 3.543-12.735-1.057c-1.724.672-3.062 4.5-3.062 4.5zm18.093 41.366s-6.03-18.002.287-26.52c0 0-8.428.668-10.722 4.69 0 0-1.152 16.85 10.435 21.83zm4.594 44.518c2.49 0 6.127-1.72 6.127-1.72 1.726 1.72 4.117.38 4.117.38.91.91 3.256 1.34 3.256 1.34s2.345-.43 3.254-1.34c0 0 2.395 1.34 4.117-.38 0 0 3.64 1.72 6.128 1.72 0 0 7.996-7.057 5.628-19.757 0 0-3.81 10.853-10.992 14.876 0 0-1.338-2.778-2.676-2.778-1.344 0-3.16 1.82-3.16 1.82s-.48-1.726-2.3-1.726c-1.82 0-2.296 1.727-2.296 1.727s-1.82-1.82-3.16-1.82c-1.343 0-2.68 2.776-2.68 2.776-7.183-4.024-10.986-14.877-10.986-14.877-2.374 12.7 5.622 19.757 5.622 19.757zm86.312-32.506s-1.003-29.87-17.09-48.827l10.773-1.15-3.162-5.024-15.923 1.814c1.74 3.807 3.03 9.076 1.832 15.503 0 0 11.554 8.84 14.15 24.525 0 0-8.138-4.363-13.795-5.66 0 0 2.94 10.492 2.94 13.674 0 0-9.19-4.128-14.144-4.128 0 0 4.127 14.503 2.946 17.804 0 0-10.373-2.712-16.27-1.886 0 0 6.723 26.408-11.32 32.775 0 0-7.937-3.063-13.75-3.063-5.82 0-13.757 3.063-13.757 3.063-18.04-6.367-11.317-32.775-11.317-32.775-5.894-.826-16.272 1.886-16.272 1.886-1.178-3.3 2.948-17.804 2.948-17.804-4.952 0-14.15 4.127-14.15 4.127 0-3.183 2.95-13.674 2.95-13.674-5.66 1.296-13.793 5.66-13.793 5.66C36.397 81.27 47.95 72.43 47.95 72.43c-1.2-6.427.095-11.696 1.83-15.503l-15.92-1.814-3.163 5.023 10.772 1.15c-16.087 18.96-17.09 48.828-17.09 48.828 2.728-3.588 14.072-8.186 14.072-8.186-2.01 4.598-2.87 13.356-2.87 13.356 5.168-3.732 16.943-6.32 16.943-6.32-2.297 5.602-1.436 17.954-1.436 17.954 4.738-2.73 14.934-2.297 14.934-2.297s-3.014 23.266 7.042 29.012c10.05 5.743 24.126 4.982 24.126 4.982s14.073.76 24.13-4.982c10.05-5.746 7.036-29.01 7.036-29.01s10.195-.434 14.935 2.296c0 0 .858-12.353-1.436-17.954 0 0 11.775 2.588 16.947 6.32 0 0-.864-8.76-2.874-13.356.002 0 11.348 4.598 14.074 8.186zm-12.957-63.622L139.95 50.03s1.946 1.818 3.78 5.154l18.28-2.13c.002-.002-2.97-4.57-4.963-6.562zm-22.602 13.73c3.733 5.388 6.495 21.142 6.495 21.142-4.973 0-9.813.415-9.813.415 2.833 2.832 4.423 9.262 4.423 9.262-3.59 0-10.5.965-10.5.965 7.185 5.115 8.706 22.11 8.706 22.11.968-3.87-.968-16.72-.968-16.72 9.257.687 11.607 1.52 11.607 1.52 0-1.387-2.763-9.95-2.763-9.95 7.46 0 13.13 2.208 13.13 2.208-5.67-20.175-20.317-30.953-20.317-30.953zm-14.958-14.367s-16.17 6.82-19.232 12.226c0 0 2.107 7.087 5.266 8.905 0 0 17.142 1.916 21.26 3.446 0 0 4.783-5.363 5.263-7.755 0 0-12.54-.67-20.3.574 0 0 16.276-5.555 21.64-6.514 0 0-1.34-3.828-3.06-4.5l-12.735 1.057 9.283-3.543s-3.664-2.524-7.383-3.895zm6.235 30.417C123.425 72.25 115 71.58 115 71.58c6.323 8.52.287 26.52.287 26.52 11.583-4.978 10.435-21.828 10.435-21.828zm-20.7-2.347c-.934-.527-4.858.074-4.858.074h-5.938s-3.925-.603-4.857-.075c0 0-3.018-3.085-5.173-2.297-2.155.787-1.116 8.62 2.226 7.47 2.298-.792 2.227-2.015 2.227-2.015s1.004 1.868 2.658 1.868c1.652 0 2.655-1.577 2.655-1.577s1.362 1.868 3.232 1.868c1.865 0 3.23-1.867 3.23-1.867s1.006 1.578 2.658 1.578c1.65 0 2.655-1.867 2.655-1.867s-.07 1.223 2.226 2.014c3.343 1.15 4.382-6.682 2.23-7.47-2.157-.787-5.173 2.298-5.173 2.298z"/>
</svg>
