<?xml version="1.0" encoding="UTF-8"?>
<svg viewBox="0 0 900 900" version="1.1" xmlns="http://www.w3.org/2000/svg">
    <title>KL.js</title>
    <description>Logo for Kuala Lumpur JS meetup</description>

    <rect width="900" height="900" fill="#2E2E2C"/>

    <g id="JS" fill="#B9B9B9" transform="translate(609.000000, 678.000000)">
        <path d="M0,29.9104211 L26.6647389,46.0322528 C31.808764,36.9196817 36.4887175,29.2101242 47.713146,29.2101242 C58.472534,29.2101242 65.2558266,33.4148094 65.2558266,49.77088 L65.2558266,161 L98,161 L98,49.305306 C98,15.4224059 78.1200069,0 49.1169867,0 C22.9226168,0 7.71821754,13.5534795 0,29.9104211" transform="translate(49.000000, 80.500000) scale(1, -1) translate(-49.000000, -80.500000)"/>
        <path d="M116,33.2365076 L142.450111,48.5767155 C149.413221,37.187693 158.462045,28.8198255 174.471576,28.8198255 C187.931154,28.8198255 196.515257,35.5611024 196.515257,44.8580377 C196.515257,56.0145526 187.698554,59.9662194 172.84818,66.4725819 L164.727354,69.9606776 C141.290954,79.9536916 125.743741,92.5042895 125.743741,119.000531 C125.743741,143.405648 144.306588,162 173.3129,162 C193.963382,162 208.814237,154.794189 219.486457,135.96733 L194.19406,119.699017 C188.625591,129.691549 182.593362,133.642735 173.3129,133.642735 C163.799356,133.642735 157.765686,127.599943 157.765686,119.699017 C157.765686,109.936103 163.799356,105.984436 177.71981,99.9416452 L185.840635,96.4549936 C213.452786,84.6009558 229,72.5163359 229,45.3240157 C229,16.0368162 206.029281,0 175.167935,0 C145.003428,0 125.512102,14.4100812 116,33.2365076" transform="translate(172.500000, 81.000000) scale(1, -1) translate(-172.500000, -81.000000)"/>
    </g>

    <path id="harimau" fill="#F3DF49" d="M132.3 191.3c4.6 20 23.7 46 23.7 46-7-12.4 0-54.6 0-54.6 10.6 16 39.8 21 39.8 21-13.6-6.4-26.2-26-26.2-26 17.6 4 36.3 24 36.3 24-13.2 7.7-28.3 40.3-28.3 40.3 24.6-6 88 8 88 8s42.6-21.3 49-27.6c6.2-6.3 10.5-19 10.5-19-14-4-22.6 12-28.2 12-5.5 0-9-11.6-14-11.6s-55 3-55 3 27.7-39.6 61-39.6c33.2 0 57 35.6 80 35.6 23.2 0 54-11 54-11l-28.3 22h110.6L477 192s30.8 11 54 11c23 0 46.8-35.6 80-35.6 33.3 0 61 39.6 61 39.6s-50-3-55-3-8.5 11.6-14 11.6-14-16-28.2-12c0 0 4.3 12.7 10.6 19 6.2 6.3 48.8 27.6 48.8 27.6s63.4-14 88-8c0 0-15-32.6-28-40.2 0 0 18.5-20 36.2-24 0 0-12.6 19.5-26.2 26 0 0 29.2-5 39.8-21 0 0 7 42 0 54.7 0 0 19-26 23.6-46.2 0 0 1.8 44.4-4.5 50.7 0 0 39.4-47.2 33.4-120 0 0-18 12-21.7 15.6 0 0-.3-12.8 3-16 0 0-80.3 14.8-109.8 44 0 0-38.3-47.6-85.7-47.6-64.4 0-102.7 30.6-132.3 30.6-29.6 0-68-30.6-132.4-30.6-47.3 0-85.6 47.7-85.6 47.7-29.4-29.4-109.8-44-109.8-44 3.3 3 3 16 3 16-3.7-4-21.6-15.6-21.6-15.6-6 72.8 33.2 120 33.2 120-6.3-6.3-4.5-50.7-4.5-50.7zM573 152l-44.7 37-27.3-17.8 72-19.2zm-176 19.2L369.7 189 325 152l72 19.2zm52.5 85.8c33.5 0 66.5-26 66.5-26H383s33 26 66.5 26zm-287-11c-9.4 9.4-23.5 31-23.5 31l87 10c8.8-15.7 18-24.3 18-24.3L162.6 246zm111 324s7.2-81.7 41.5-106.3c0 0-33-4.6-50.2-4.6 0 0 7.6-30.8 21-44.4 0 0-23-2-46.8-2 0 0 13.3-75.7 31-101.6 0 0-70 51.8-97 148.8 0 0 27-10.7 62.7-10.7 0 0-13.2 41.3-13.2 48 0 0 11.2-4 55.5-7.4 0 0-9.2 61.8-4.6 80.4zm3.5-275.8c25.7 4.6 103.8 31.3 103.8 31.3-37.2-6-97.4-2.7-97.4-2.7 2.3 11.5 25.3 37.2 25.3 37.2 19.8-7.3 102-16.6 102-16.6 15.2-8.7 25.3-42.7 25.3-42.7-14.7-26-92.3-58.7-92.3-58.7-18 6.6-35.5 18.7-35.5 18.7l44.6 17-61-5C283.3 275.8 277 294 277 294zM363.6 492s-29-86.2 1.4-127c0 0-40.8 3.2-52 22.5 0 0-5.4 80.7 50.6 104.5zM385 706c12 0 29.3-8.3 29.3-8.3 8.2 8.3 19.6 1.8 19.6 1.8 4.3 4.5 15.5 6.5 15.5 6.5s11.2-2 15.6-6.4c0 0 11.5 6.4 19.7-2 0 0 17.4 8.4 29.3 8.4 0 0 38.2-34 27-95 0 0-18.3 52.2-52.6 71.5 0 0-6.4-13.3-12.8-13.3s-15 8.7-15 8.7-2.4-8.4-11-8.4c-8.8 0-11 8.3-11 8.3s-8.8-8.8-15.2-8.8c-6.4 0-12.8 13.3-12.8 13.3C376.3 663.2 358 611 358 611c-11.2 61 27 95 27 95zm413-156.5s-4.8-143-81.8-234l51.6-5.4-15.2-24-76.2 8.7c8.3 18.2 14.5 43.5 8.8 74.3 0 0 55.3 42.3 67.7 117.5 0 0-39-21-66-27.2 0 0 14 50.3 14 65.5 0 0-44-19.7-67.7-19.7 0 0 19.7 69.5 14 85.4 0 0-49.6-13-77.8-9 0 0 32.2 126.4-54.2 157 0 0-38-14.7-65.8-14.7-28 0-66 14.6-66 14.6-86.2-30.5-54-157-54-157-28.3-4-78 9-78 9-5.6-15.8 14.2-85.2 14.2-85.2C242 505 198 525 198 525c0-15.2 14-65.5 14-65.5-27 6.2-66 27-66 27C158.6 411.4 214 369 214 369c-5.8-30.8.4-56 8.7-74.3l-76.2-8.7-15 24 51.5 5.6c-77 90.8-81.8 234-81.8 234 13-17.3 67.3-39.3 67.3-39.3-9.6 22-13.7 64-13.7 64 24.7-18 81-30.3 81-30.3-11 26.8-6.8 86-6.8 86 22.7-13 71.5-11 71.5-11S286 730.4 334 758c48 27.5 115.5 23.8 115.5 23.8s67.3 3.7 115.5-23.8c48-27.5 33.7-139 33.7-139s48.8-2 71.4 11c0 0 4.2-59.2-6.7-86 0 0 56.3 12.4 81 30.3 0 0-4-42-13.7-64 0 0 54.3 22 67.4 39.2zM735.4 246L654 262.7s9.3 8.6 18 24.3l87-10s-14-21.6-23.6-31zM628 311c17.7 26 31 101.6 31 101.6-23.8 0-47 2-47 2 13.6 13.6 21.2 44.5 21.2 44.5C616 459 583 464 583 464c34.3 24.5 41.6 106.2 41.6 106.2 4.6-18.6-4.6-80.3-4.6-80.3 44.2 3.2 55.5 7.2 55.5 7.2 0-6.7-13.2-48-13.2-48 35.6 0 62.7 10.7 62.7 10.7-27-97-97-148.7-97-148.7zm-70.7-69s-77.6 32.8-92.3 58.7c0 0 10 34 25.3 42.8 0 0 82.2 9 102 16.5 0 0 23-25.8 25.3-37.2 0 0-60.2-3.2-97.5 2.7 0 0 78.2-26.7 104-31.3 0 0-6.4-18.3-14.7-21.6l-61 5 44.4-17s-17.6-12-35.4-18.6zM587 387.5c-11.3-19.3-52-22.5-52-22.5 30.6 40.8 1.4 127 1.4 127 56-23.8 50.5-104.5 50.5-104.5zm-100-11c-4.6-2.4-23.3.5-23.3.5h-28.4s-18.8-3-23.2-.4c0 0-14.3-14.8-24.6-11-10.3 3.8-5.4 41.2 10.6 35.7 11-3.8 10.7-9.6 10.7-9.6s4.8 9 12.7 9c8 0 12.7-7.7 12.7-7.7s6.6 9 15.5 9c9 0 15.4-9 15.4-9s4.7 7.6 12.6 7.6c8 0 12.7-9 12.7-9s-.3 6 10.6 9.7c16 5.5 21-32 10.6-35.7-10.3-3.8-24.7 11-24.7 11z"/>
</svg>