<?xml version="1.0" encoding="UTF-8"?>
<svg viewBox="0 0 900 900" version="1.1" xmlns="http://www.w3.org/2000/svg">
    <title>KL.js</title>
    <description>Logo for Kuala Lumpur JS meetup</description>

    <rect width="900" height="900" fill="#2E2E2C"/>

    <g id="JS" fill="#B9B9B9" transform="translate(609.000000, 678.000000)">
        <path d="M0,29.9104211 L26.6647389,46.0322528 C31.808764,36.9196817 36.4887175,29.2101242 47.713146,29.2101242 C58.472534,29.2101242 65.2558266,33.4148094 65.2558266,49.77088 L65.2558266,161 L98,161 L98,49.305306 C98,15.4224059 78.1200069,0 49.1169867,0 C22.9226168,0 7.71821754,13.5534795 0,29.9104211" transform="translate(49.000000, 80.500000) scale(1, -1) translate(-49.000000, -80.500000)"/>
        <path d="M116,33.2365076 L142.450111,48.5767155 C149.413221,37.187693 158.462045,28.8198255 174.471576,28.8198255 C187.931154,28.8198255 196.515257,35.5611024 196.515257,44.8580377 C196.515257,56.0145526 187.698554,59.9662194 172.84818,66.4725819 L164.727354,69.9606776 C141.290954,79.9536916 125.743741,92.5042895 125.743741,119.000531 C125.743741,143.405648 144.306588,162 173.3129,162 C193.963382,162 208.814237,154.794189 219.486457,135.96733 L194.19406,119.699017 C188.625591,129.691549 182.593362,133.642735 173.3129,133.642735 C163.799356,133.642735 157.765686,127.599943 157.765686,119.699017 C157.765686,109.936103 163.799356,105.984436 177.71981,99.9416452 L185.840635,96.4549936 C213.452786,84.6009558 229,72.5163359 229,45.3240157 C229,16.0368162 206.029281,0 175.167935,0 C145.003428,0 125.512102,14.4100812 116,33.2365076" transform="translate(172.500000, 81.000000) scale(1, -1) translate(-172.500000, -81.000000)"/>
    </g>

    <path id="harimau" fill="#F3DF49" d="M132.34 191.26c4.53 20.1 23.66 46.17 23.66 46.17-7.05-12.54 0-54.7 0-54.7 10.6 16.07 39.8 21.1 39.8 21.1-13.6-6.52-26.2-26.1-26.2-26.1 17.64 4 36.26 24.08 36.26 24.08-13.1 7.55-28.2 40.15-28.2 40.15 24.67-6 88.13 8.05 88.13 8.05s42.53-21.34 48.83-27.6c6.3-6.28 10.6-19.07 10.6-19.07-14.1-4.03-22.67 12.02-28.22 12.02-5.54 0-9.07-11.52-14.1-11.52-5.02 0-54.87 3-54.87 3s27.7-39.65 60.93-39.65c33.23 0 56.9 35.64 80.07 35.64 23.17 0 53.9-11.04 53.9-11.04l-28.23 22.07h110.6l-28.2-22.07s30.73 11.04 53.88 11.04c23.16 0 46.82-35.64 80.07-35.64 33.24 0 60.94 39.65 60.94 39.65s-49.88-3-54.92-3c-5.02 0-8.55 11.52-14.08 11.52-5.53 0-14.12-16.05-28.2-12.02 0 0 4.27 12.8 10.56 19.07 6.3 6.26 48.84 27.6 48.84 27.6s63.46-14.05 88.16-8.05c0 0-15.12-32.6-28.2-40.14 0 0 18.6-20.06 36.24-24.07 0 0-12.6 19.58-26.2 26.1 0 0 29.22-5.03 39.78-21.1 0 0 7.06 42.16 0 54.7 0 0 19.14-26.08 23.68-46.17 0 0 1.75 44.43-4.54 50.7 0 0 39.3-47.18 33.25-119.93 0 0-17.88 11.8-21.67 15.55 0 0-.25-12.8 3.03-16.05 0 0-80.3 14.8-109.78 44.15 0 0-38.27-47.68-85.6-47.68-64.46 0-102.74 30.62-132.35 30.62-29.62 0-67.9-30.62-132.36-30.62-47.33 0-85.6 47.68-85.6 47.68-29.46-29.36-109.78-44.15-109.78-44.15 3.26 3.26 3.02 16.05 3.02 16.05-3.8-3.77-21.65-15.55-21.65-15.55-6.05 72.75 33.23 119.92 33.23 119.92-6.3-6.26-4.52-50.7-4.52-50.7zM573 152l-44.7 37-27.3-17.76L573 152zm-176 19.24L369.7 189 325 152l72 19.24zM449.5 257c33.54 0 66.5-26 66.5-26H383s32.97 26 66.5 26zm-286.88-11c-9.5 9.4-23.62 30.95-23.62 30.95L226.02 287c8.73-15.74 17.98-24.3 17.98-24.3L162.62 246zM273.4 570s7.26-81.67 41.6-106.25c0 0-33.04-4.64-50.2-4.64 0 0 7.6-30.9 21.14-44.5 0 0-23.12-2-46.9-2 0 0 13.22-75.7 31.05-101.6 0 0-70.03 51.8-97.1 148.74 0 0 27.08-10.6 62.75-10.6 0 0-13.23 41.14-13.23 47.8 0 0 11.23-4 55.5-7.3 0 0-9.24 61.77-4.63 80.36zm3.6-275.76c25.7 4.6 103.85 31.28 103.85 31.28-37.22-5.97-97.43-2.76-97.43-2.76 2.3 11.5 25.27 37.24 25.27 37.24 19.76-7.35 102.02-16.55 102.02-16.55C425.88 334.73 436 300.7 436 300.7c-14.72-25.95-92.3-58.7-92.3-58.7-17.88 6.58-35.47 18.7-35.47 18.7l44.6 17.02-61.13-5.08c-8.28 3.23-14.7 21.6-14.7 21.6zM363.6 492s-29.15-86.2 1.4-127c0 0-40.75 3.2-51.85 22.47 0 0-5.57 80.68 50.46 104.53zm21.37 214c11.9 0 29.28-8.27 29.28-8.27 8.26 8.27 19.68 1.82 19.68 1.82 4.35 4.4 15.57 6.45 15.57 6.45s11.2-2.06 15.55-6.45c0 0 11.44 6.45 19.67-1.82 0 0 17.4 8.27 29.3 8.27 0 0 38.2-33.93 26.88-95 0 0-18.2 52.2-52.53 71.53 0 0-6.4-13.35-12.8-13.35s-15.1 8.75-15.1 8.75-2.28-8.3-10.97-8.3c-8.7 0-10.98 8.3-10.98 8.3s-8.7-8.75-15.1-8.75c-6.42 0-12.82 13.35-12.82 13.35C376.28 663.2 358.1 611 358.1 611c-11.34 61.07 26.87 95 26.87 95zM798 549.5s-4.8-143.1-81.8-233.92l51.57-5.52L752.63 286l-76.2 8.7c8.32 18.23 14.5 43.47 8.76 74.26 0 0 55.3 42.35 67.7 117.5 0 0-38.94-20.9-66-27.12 0 0 14.07 50.26 14.07 65.5 0 0-44-19.77-67.7-19.77 0 0 19.75 69.48 14.1 85.3 0 0-49.65-13-77.88-9.04 0 0 32.17 126.5-54.2 157.02 0 0-37.98-14.68-65.8-14.68-27.85 0-65.84 14.68-65.84 14.68-86.35-30.5-54.17-157.02-54.17-157.02-28.22-3.96-77.9 9.04-77.9 9.04-5.63-15.82 14.12-85.3 14.12-85.3-23.7 0-67.72 19.77-67.72 19.77 0-15.24 14.1-65.5 14.1-65.5-27.08 6.2-66 27.1-66 27.1 12.42-75.13 67.72-117.48 67.72-117.48-5.74-30.8.45-56.03 8.75-74.27l-76.2-8.7-15.13 24.06 51.56 5.52c-77 90.82-81.8 233.9-81.8 233.9 13.06-17.18 67.36-39.2 67.36-39.2-9.62 22.02-13.74 63.98-13.74 63.98 24.74-17.88 81.1-30.28 81.1-30.28-11 26.84-6.88 86-6.88 86 22.68-13.06 71.48-11 71.48-11s-14.42 111.47 33.7 139c48.12 27.5 115.48 23.86 115.48 23.86s67.36 3.65 115.5-23.87C613.1 730.45 598.66 619 598.66 619s48.8-2.08 71.48 11c0 0 4.1-59.18-6.87-86.02 0 0 56.36 12.4 81.1 30.28 0 0-4.12-41.96-13.74-63.98 0 0 54.3 22.02 67.36 39.2zM735.37 246L654 262.7s9.27 8.56 18 24.3l87-10.05S744.86 255.4 735.37 246zM627.9 311c17.84 25.9 31.04 101.6 31.04 101.6-23.76 0-46.9 2-46.9 2 13.54 13.6 21.14 44.5 21.14 44.5-17.16 0-50.18 4.65-50.18 4.65C617.34 488.33 624.6 570 624.6 570c4.64-18.6-4.62-80.35-4.62-80.35 44.25 3.3 55.48 7.3 55.48 7.3 0-6.66-13.2-47.8-13.2-47.8 35.65 0 62.74 10.6 62.74 10.6C697.9 362.8 627.9 311 627.9 311zm-70.6-69s-77.6 32.75-92.3 58.7c0 0 10.1 34.03 25.27 42.75 0 0 82.27 9.2 102.03 16.55 0 0 22.96-25.75 25.26-37.24 0 0-60.18-3.2-97.42 2.76 0 0 78.1-26.67 103.86-31.28 0 0-6.44-18.38-14.7-21.6l-61.1 5.07 44.54-17s-17.6-12.12-35.44-18.7zm29.55 145.47C575.75 368.2 535 365 535 365c30.58 40.8 1.4 127 1.4 127 56-23.84 50.45-104.53 50.45-104.53zM486.9 376.6c-4.46-2.53-23.2.35-23.2.35H435.3s-18.76-2.88-23.22-.36c0 0-14.4-14.75-24.7-10.98-10.3 3.76-5.35 41.2 10.63 35.7 10.98-3.8 10.64-9.63 10.64-9.63s4.8 8.9 12.7 8.9c7.9 0 12.7-7.53 12.7-7.53s6.5 8.93 15.43 8.93c8.92 0 15.44-8.93 15.44-8.93s4.8 7.54 12.7 7.54c7.9 0 12.7-8.9 12.7-8.9s-.35 5.83 10.63 9.6c15.97 5.5 20.94-31.92 10.65-35.68-10.3-3.77-24.72 10.97-24.72 10.97z"/>
</svg>